<svg width="158" height="157" viewBox="0 0 158 157" fill="none" xmlns="http://www.w3.org/2000/svg">
<g opacity="0.2" clip-path="url(#clip0_2_1282)">
<path fill-rule="evenodd" clip-rule="evenodd" d="M92.2092 73.5165C91.5423 73.6284 90.8737 73.8672 90.2064 74.106C86.6094 75.1674 82.4159 76.3425 79.2892 78.5565C75.1882 81.5101 73.5516 84.8995 73.5079 88.3249C73.4502 93.1459 76.9235 98.1725 81.7683 101.327C86.5683 104.48 92.637 105.886 97.5923 104.094C100.987 102.901 103.924 100.175 105.6 95.3906C107.531 89.9771 106.172 84.7436 103.092 80.1059C101.937 78.3034 100.534 76.7493 98.9849 75.1917C101.078 74.858 103.191 74.5242 105.334 74.1916C112.344 73.3338 119.694 73.2448 126.729 73.7834C136.037 74.3732 144.906 76.4766 153.435 80.2214C154.225 80.4929 155.145 80.1326 155.49 79.3789C155.834 78.6252 155.475 77.7294 154.688 77.331C145.822 73.4517 136.606 71.2134 126.931 70.6154C119.689 70.199 112.13 70.1572 104.913 71.1373C101.923 71.5777 98.9882 72.0192 96.0834 72.5885C92.3578 69.5861 88.1968 67.2082 84.6463 65.7325C60.884 56.3158 28.349 67.1329 6.37224 78.0607C5.60356 78.4241 5.29409 79.3062 5.67845 80.0763C6.06409 80.8463 7.00123 81.1212 7.76991 80.7577C29.0407 70.1948 60.4814 59.4791 83.4793 68.6248C86.1839 69.7008 89.277 71.4202 92.2092 73.5165ZM95.2554 75.9965C93.8806 76.2194 92.5119 76.5687 91.1441 77.0456C87.8453 78.1136 83.9761 79.0417 81.1137 81.0079C78.0177 83.2226 76.6586 85.7311 76.6262 88.2685C76.5757 92.3282 79.5722 96.2021 83.4924 98.7012C87.4531 101.328 92.4319 102.709 96.5241 101.151C99.1573 100.195 101.36 98.087 102.658 94.4359C104.25 89.9032 103.029 85.5618 100.488 81.8246C99.0779 79.6356 97.261 77.6913 95.2554 75.9965Z" fill="#1F232E"/>
<path fill-rule="evenodd" clip-rule="evenodd" d="M6.09997 79.5756C6.5661 78.9515 7.25614 78.3325 7.94745 77.7135C9.27762 76.4743 10.6829 75.3635 11.4328 74.3651C16.0474 68.3774 21.506 61.1399 24.0176 53.9629C24.2999 53.2078 23.871 52.3098 23.058 52.0378C22.2462 51.7657 21.3586 52.1263 21.0735 53.0082C18.6652 59.8068 13.3816 66.6686 8.95032 72.5335C8.14156 73.5306 6.44644 74.8877 5.08428 76.1261C3.92718 77.2423 2.99909 78.3638 2.64547 79.498C2.40068 80.127 2.63048 81.2743 4.05374 82.0677C6.07255 83.1282 11.7227 84.1441 12.2687 84.2833C17.8002 85.6765 22.6638 87.0545 26.0644 91.9532C26.5553 92.5987 27.5287 92.7472 28.2321 92.3823C28.9384 91.8905 29.1151 90.879 28.623 90.2335C24.7455 84.6896 19.3062 82.7911 12.9997 81.2536C12.5954 81.2445 9.21778 80.661 6.87972 79.8471C6.62801 79.7146 6.34784 79.708 6.09997 79.5756Z" fill="#1F232E"/>
</g>
<defs>
<clipPath id="clip0_2_1282">
<rect width="152.001" height="153.325" fill="white" transform="matrix(0.022841 -0.999739 0.999748 0.0224479 0.884277 152.931)"/>
</clipPath>
</defs>
</svg>
